PathFileType	4	(X/Y/Z)	/Users/itak/Documents/Research/Walk-IL/dataset/trc/00248_00009.trc
DataRate	CameraRate	NumFrames	NumMarkers	Units	OrigDataRate	OrigDataStartFrame	OrigNumFrames
100.000000	100.000000	4	53	mm	100.000000	475	543
Frame#	Time	RPSI			LPSI			L3			STRN			T10			C7			CLAV			RBAK			LBAK			LSHO			LUPA			LAEL			LAOL			LWTS			LWPS			LFRA			LHPS			LHTS			RSHO			RUPA			RAEL			RAOL			RWTS			RWPS			RFRA			RIFD			RHTS			RHPS			RBHD			LFHD			RFHD			LBHD			LHIP			RHIP			RASI			LASI			LKNE			LTHI			LANK			LTIP			LTOE			LMT1			LMT5			LHEE			RKNE			RTHI			RANK			RTIP			RTOE			RMT1			RMT5			RHEE			LIFD			
		X1	Y1	Z1	X2	Y2	Z2	X3	Y3	Z3	X4	Y4	Z4	X5	Y5	Z5	X6	Y6	Z6	X7	Y7	Z7	X8	Y8	Z8	X9	Y9	Z9	X10	Y10	Z10	X11	Y11	Z11	X12	Y12	Z12	X13	Y13	Z13	X14	Y14	Z14	X15	Y15	Z15	X16	Y16	Z16	X17	Y17	Z17	X18	Y18	Z18	X19	Y19	Z19	X20	Y20	Z20	X21	Y21	Z21	X22	Y22	Z22	X23	Y23	Z23	X24	Y24	Z24	X25	Y25	Z25	X26	Y26	Z26	X27	Y27	Z27	X28	Y28	Z28	X29	Y29	Z29	X30	Y30	Z30	X31	Y31	Z31	X32	Y32	Z32	X33	Y33	Z33	X34	Y34	Z34	X35	Y35	Z35	X36	Y36	Z36	X37	Y37	Z37	X38	Y38	Z38	X39	Y39	Z39	X40	Y40	Z40	X41	Y41	Z41	X42	Y42	Z42	X43	Y43	Z43	X44	Y44	Z44	X45	Y45	Z45	X46	Y46	Z46	X47	Y47	Z47	X48	Y48	Z48	X49	Y49	Z49	X50	Y50	Z50	X51	Y51	Z51	X52	Y52	Z52	X53	Y53	Z53	

476	4.75	-77.51156616210938	1045.154663085938	774.9957885742188	41.81195449829102	1048.098388671875	760.94091796875	-8.279006958007812	1130.606323242188	758.9598999023438	33.17437362670898	1317.513916015625	1005.421752929688	-18.69888687133789	1257.249633789062	760.1513061523438	-13.770188331604	1518.09228515625	819.0350952148438	22.05405616760254	1434.442626953125	979.1928100585938	-98.19439697265625	1376.470581054688	760.13232421875	88.94611358642578	1484.90576171875	773.0848388671875	161.8159332275391	1487.067626953125	848.2518310546875	235.0978393554688	1372.798583984375	801.32373046875	282.6235961914062	1167.607543945312	815.8897094726562	221.4969482421875	1140.766479492188	759.0107421875	257.4590759277344	960.2105712890625	964.1689453125	330.5845947265625	938.0225830078125	926.2880249023438	306.5871887207031	1067.363525390625	854.7860717773438	334.6762084960938	856.487548828125	963.9027709960938	290.244140625	870.2662963867188	1014.419494628906	-164.8556823730469	1474.737060546875	909.946533203125	-233.7465667724609	1410.02197265625	906.2742309570312	-275.8096008300781	1128.54931640625	903.912841796875	-192.6629180908203	1118.876708984375	857.1786499023438	-193.5181427001953	954.0575561523438	1073.83203125	-263.2576293945312	922.2710571289062	1036.9970703125	-279.671142578125	1065.085571289062	944.9255981445312	-164.2968902587891	773.360107421875	1135.30322265625	-191.3078002929688	847.4892578125	1144.181274414062	-248.2344665527344	830.2194213867188	1101.48876953125	-53.87345504760742	1678.24365234375	882.0609741210938	72.42938995361328	1704.622436523438	1068.937866210938	-25.90204238891602	1699.951171875	1084.464111328125	84.69446563720703	1685.52587890625	905.7069702148438	192.2405853271484	987.2898559570312	846.3067626953125	-171.4013214111328	1003.806274414062	890.5440063476562	-121.1190719604492	1052.228393554688	975.21142578125	157.8799133300781	1034.875854492188	949.39990234375	166.1566314697266	518.2338256835938	994.9783325195312	191.2889556884766	655.6904296875	951.2734375	154.7910461425781	36.46633911132812	894.4345703125	170.7569427490234	291.0810546875	938.48876953125	118.2762069702148	64.12773895263672	1107.772216796875	70.25429534912109	51.21845626831055	1045.5966796875	180.8983764648438	41.59336471557617	1019.192321777344	98.50716400146484	43.16172790527344	837.3543701171875	-110.2831802368164	519.4503784179688	965.3153686523438	-159.7466125488281	786.5089111328125	958.6669311523438	-79.50248718261719	39.05572128295898	877.3402099609375	-86.43787384033203	397.3074035644531	971.7079467773438	-9.197539329528809	43.78040313720703	1083.505493164062	25.40277671813965	41.74738693237305	1021.027587890625	-91.52296447753906	39.29934310913086	989.32861328125	-29.60886001586914	38.1622200012207	808.4559936523438	275.6155090332031	772.3154296875	1011.72216796875	
477	4.76	-75.54681396484375	1044.587036132812	777.5987548828125	43.86728668212891	1047.272705078125	764.2238159179688	-6.056170463562012	1130.153076171875	761.60546875	34.63425064086914	1317.480712890625	1007.642517089844	-16.40420150756836	1256.8046875	762.2466430664062	-11.54856204986572	1517.779418945312	820.746826171875	23.64741325378418	1434.377563476562	981.217041015625	-95.76797485351562	1376.078002929688	761.7512817382812	91.412109375	1484.511352539062	775.2979736328125	163.8808135986328	1486.795288085938	850.733154296875	237.4335784912109	1372.473266601562	804.3649291992188	285.031982421875	1167.2958984375	819.8699340820312	224.3602294921875	1140.274291992188	762.4864501953125	258.0469970703125	960.81689453125	969.127685546875	331.5431213378906	938.3472290039062	932.1682739257812	308.4854431152344	1067.247924804688	859.5862426757812	335.1474304199219	857.0099487304688	970.306884765625	290.1784973144531	871.156494140625	1020.218200683594	-162.9366912841797	1474.537109375	911.2142944335938	-231.7744140625	1409.773193359375	907.3460693359375	-274.1112060546875	1128.430053710938	905.10009765625	-190.9976806640625	1118.72265625	858.5224609375	-192.5342254638672	953.066162109375	1074.4443359375	-262.3173828125	921.692138671875	1037.479370117188	-278.1683044433594	1064.879028320312	945.930908203125	-163.7292175292969	772.0008544921875	1134.973266601562	-190.6298522949219	846.1483764648438	1144.268920898438	-247.5373840332031	829.2755126953125	1101.537841796875	-52.05827331542969	1678.010375976562	883.6036987304688	73.59560394287109	1704.537719726562	1070.891479492188	-24.77118110656738	1699.869384765625	1086.081909179688	86.39213562011719	1685.34228515625	907.7334594726562	193.6582489013672	986.4598999023438	850.5233764648438	-170.2138671875	1004.347961425781	892.7537841796875	-120.0624389648438	1052.79736328125	977.53857421875	159.0211334228516	1034.590698242188	953.2412719726562	166.0731964111328	517.51220703125	997.3685913085938	191.5352325439453	654.886474609375	954.1641845703125	154.7310943603516	35.89884185791016	900.4092407226562	170.6662445068359	289.6799011230469	943.3541259765625	116.33984375	60.10043716430664	1114.59765625	68.68861389160156	48.67610168457031	1051.497680664062	180.0665435791016	40.14159774780273	1025.551879882812	98.68526458740234	42.59203338623047	843.1809692382812	-109.8436737060547	519.3910522460938	967.0843505859375	-159.1922149658203	786.486083984375	961.0814208984375	-79.48433685302734	39.04478073120117	877.35009765625	-86.09737396240234	397.1475830078125	973.1512451171875	-9.201594352722168	43.72551345825195	1083.650512695312	25.34604835510254	41.80680847167969	1021.131103515625	-91.51734924316406	39.31137084960938	989.3789672851562	-29.51594924926758	38.40116500854492	808.5233154296875	275.4562072753906	773.1934204101562	1017.897399902344	
478	4.77	-73.58218383789062	1043.938720703125	780.1849975585938	45.92398452758789	1046.344848632812	767.4482421875	-3.792954921722412	1129.57275390625	764.1852416992188	36.09489822387695	1317.388671875	1009.777160644531	-14.01676368713379	1256.24951171875	764.26123046875	-9.269464492797852	1517.400146484375	822.3440551757812	25.24542427062988	1434.235107421875	983.13427734375	-93.23394012451172	1375.56982421875	763.2263793945312	93.93913269042969	1484.010009765625	777.4270629882812	166.0047912597656	1486.415893554688	853.1292114257812	239.8167114257812	1372.012573242188	807.3504638671875	287.4541625976562	1166.845703125	823.7948608398438	227.2326354980469	1139.649536132812	765.93115234375	258.6484069824219	961.2476196289062	973.9200439453125	332.5053100585938	938.501708984375	937.882080078125	310.3893737792969	1066.981811523438	864.2886962890625	335.6121826171875	857.3678588867188	976.5466918945312	290.1574096679688	871.9155883789062	1025.887451171875	-161.0216827392578	1474.235107421875	912.3001098632812	-229.7828063964844	1409.384765625	908.20556640625	-272.3702392578125	1128.174072265625	906.0875854492188	-189.2681732177734	1118.439086914062	859.6915893554688	-191.5861053466797	951.893310546875	1074.827392578125	-261.4398498535156	920.957763671875	1037.7041015625	-276.6446228027344	1064.522583007812	946.689453125	-163.2559356689453	770.4222412109375	1134.330444335938	-189.9890899658203	844.5736083984375	1144.068603515625	-246.9170227050781	828.125732421875	1101.301879882812	-50.20398330688477	1677.718994140625	884.976806640625	74.76319885253906	1704.435302734375	1072.69921875	-23.65388870239258	1699.780151367188	1087.548095703125	88.11336517333984	1685.111938476562	909.6216430664062	195.1257476806641	985.4920654296875	854.6217651367188	-168.957275390625	1004.798034667969	894.9710083007812	-118.9374160766602	1053.275512695312	979.8739013671875	160.2306213378906	1034.174194335938	956.99267578125	166.0476379394531	516.6528930664062	999.6771850585938	191.767333984375	653.9608154296875	956.9891357421875	154.4889068603516	35.76017761230469	904.5150756835938	170.4746551513672	288.4169006347656	947.3365478515625	114.8032608032227	55.794677734375	1119.726806640625	67.36793518066406	46.0472526550293	1055.773315429688	179.4999694824219	38.89383697509766	1029.947631835938	98.56974029541016	42.45501327514648	847.25146484375	-109.3377456665039	519.3048706054688	968.9900512695312	-158.6581115722656	786.4358520507812	963.5926513671875	-79.47137451171875	39.03569412231445	877.369873046875	-85.72403717041016	396.9739685058594	974.716064453125	-9.202635765075684	43.66508102416992	1083.790161132812	25.3047046661377	41.85161590576172	1021.226135253906	-91.50994110107422	39.32038879394531	989.4190063476562	-29.40912437438965	38.66489410400391	808.6079711914062	275.3182983398438	773.9253540039062	1023.957824707031	
479	4.78	-71.63688659667969	1043.229736328125	782.748291015625	47.9525146484375	1045.351684570312	770.6019287109375	-1.516943454742432	1128.896850585938	766.7120971679688	37.54509735107422	1317.260131835938	1011.832092285156	-11.55763053894043	1255.615356445312	766.2050170898438	-6.951167106628418	1516.9814453125	823.8372802734375	26.84347343444824	1434.039306640625	984.9509887695312	-90.60389709472656	1374.977783203125	764.565673828125	96.50862121582031	1483.431884765625	779.475830078125	168.1792144775391	1485.953491210938	855.4428100585938	242.2309417724609	1371.440063476562	810.2861938476562	289.8699645996094	1166.281127929688	827.6881103515625	230.1169891357422	1138.916381835938	769.3674926757812	259.2611999511719	961.4926147460938	978.520263671875	333.46826171875	938.4913940429688	943.4254150390625	312.2858581542969	1066.584594726562	868.9061889648438	336.0706481933594	857.5663452148438	982.6099243164062	290.1747131347656	872.53515625	1031.413818359375	-159.121337890625	1473.850219726562	913.2168579101562	-227.7845153808594	1408.874267578125	908.867431640625	-270.5785522460938	1127.795043945312	906.8627319335938	-187.44775390625	1118.039672851562	860.6870727539062	-190.6763916015625	950.5638427734375	1074.987670898438	-260.6106872558594	920.0861206054688	1037.666381835938	-275.1049194335938	1064.029052734375	947.1826782226562	-162.8920135498047	768.653076171875	1133.414672851562	-189.3790588378906	842.797119140625	1143.596069335938	-246.3781890869141	826.8037109375	1100.7919921875	-48.30907821655273	1677.388793945312	886.1946411132812	75.93125915527344	1704.34814453125	1074.375854492188	-22.54947471618652	1699.708862304688	1088.87744140625	89.86422729492188	1684.856689453125	911.3827514648438	196.6412048339844	984.4536743164062	858.5860595703125	-167.6287689208984	1005.1650390625	897.1966552734375	-117.742431640625	1053.672485351562	982.218505859375	161.502685546875	1033.665649414062	960.6373291015625	166.0814819335938	515.703857421875	1001.88916015625	191.9869232177734	652.9786987304688	959.7587280273438	154.1388549804688	35.89853668212891	907.02490234375	170.2217559814453	287.304443359375	950.460205078125	113.6363754272461	51.75024032592773	1123.278930664062	66.29750061035156	43.63512802124023	1058.596313476562	179.1533355712891	37.93742370605469	1032.661987304688	98.26247406005859	42.56925582885742	849.775146484375	-108.7545166015625	519.1846313476562	971.0098266601562	-158.1212158203125	786.3638305664062	966.1926879882812	-79.45981597900391	39.03829193115234	877.3994750976562	-85.31143188476562	396.7941589355469	976.3824462890625	-9.203437805175781	43.6030387878418	1083.917236328125	25.28207015991211	41.88535308837891	1021.312438964844	-91.49968719482422	39.32726287841797	989.4483642578125	-29.28463554382324	38.94906997680664	808.7091064453125	275.2048034667969	774.5029296875	1029.882446289062	
